<svg id="Layer_1" data-name="Layer 1" xmlns="http://www.w3.org/2000/svg" xmlns:xlink="http://www.w3.org/1999/xlink" viewBox="0 0 1329 447"><defs><style>.cls-1,.cls-3{fill:none;}.cls-2{fill:#e6e6e6;}.cls-3{stroke:#000;stroke-miterlimit:10;stroke-width:2px;}.cls-4{clip-path:url(#clip-path);}.cls-5{fill:url(#linear-gradient);}.cls-6,.cls-71{fill:#fff;}.cls-6{fill-rule:evenodd;}.cls-7{clip-path:url(#clip-path-4);}.cls-8{fill:url(#linear-gradient-2);}.cls-9{clip-path:url(#clip-path-7);}.cls-10{fill:url(#linear-gradient-3);}.cls-11{clip-path:url(#clip-path-10);}.cls-12{fill:url(#linear-gradient-4);}.cls-13{clip-path:url(#clip-path-13);}.cls-14{fill:url(#linear-gradient-5);}.cls-15{font-size:22px;}.cls-15,.cls-18,.cls-71{font-family:MyriadPro-Regular, Myriad Pro;}.cls-16{letter-spacing:0.01em;}.cls-17{letter-spacing:-0.01em;}.cls-18{font-size:16px;}.cls-19{letter-spacing:0.01em;}.cls-20{letter-spacing:-0.01em;}.cls-21{letter-spacing:-0.01em;}.cls-22{letter-spacing:-0.01em;}.cls-23{letter-spacing:0em;}.cls-24{letter-spacing:0em;}.cls-25{letter-spacing:0.02em;}.cls-26{letter-spacing:0em;}.cls-27{letter-spacing:-0.01em;}.cls-28{letter-spacing:0em;}.cls-29{letter-spacing:-0.01em;}.cls-30{letter-spacing:0em;}.cls-31{letter-spacing:0em;}.cls-32{letter-spacing:-0.01em;}.cls-33{letter-spacing:0em;}.cls-34{letter-spacing:-0.01em;}.cls-35{letter-spacing:0em;}.cls-36{letter-spacing:-0.01em;}.cls-37{letter-spacing:-0.01em;}.cls-38{letter-spacing:0em;}.cls-39{letter-spacing:-0.01em;}.cls-40{letter-spacing:-0.01em;}.cls-41{letter-spacing:0em;}.cls-42{letter-spacing:-0.01em;}.cls-43{letter-spacing:0.02em;}.cls-44{letter-spacing:0.01em;}.cls-45{letter-spacing:0em;}.cls-46{letter-spacing:0em;}.cls-47{letter-spacing:-0.01em;}.cls-48{letter-spacing:-0.01em;}.cls-49{letter-spacing:-0.04em;}.cls-50{letter-spacing:0.02em;}.cls-51{letter-spacing:-0.07em;}.cls-52{letter-spacing:0.02em;}.cls-53{letter-spacing:0.03em;}.cls-54{letter-spacing:-0.03em;}.cls-55{letter-spacing:0.01em;}.cls-56{letter-spacing:0.02em;}.cls-57{letter-spacing:0em;}.cls-58{letter-spacing:-0.01em;}.cls-59{letter-spacing:0em;}.cls-60{letter-spacing:-0.01em;}.cls-61{letter-spacing:0em;}.cls-62{letter-spacing:-0.05em;}.cls-63{letter-spacing:-0.01em;}.cls-64{letter-spacing:-0.01em;}.cls-65{letter-spacing:-0.01em;}.cls-66{letter-spacing:0em;}.cls-67{letter-spacing:-0.01em;}.cls-68{letter-spacing:-0.02em;}.cls-69{letter-spacing:-0.03em;}.cls-70{letter-spacing:0.01em;}.cls-71{font-size:24px;}</style><clipPath id="clip-path"><rect class="cls-1" x="739" y="41" width="80" height="80"/></clipPath><linearGradient id="linear-gradient" x1="-168.25" y1="-182.36" x2="-167.25" y2="-182.36" gradientTransform="translate(19757.75 20712.96) scale(113.14)" gradientUnits="userSpaceOnUse"><stop offset="0" stop-color="#c8511b"/><stop offset="1" stop-color="#f90"/></linearGradient><clipPath id="clip-path-4"><rect class="cls-1" x="345" y="41" width="80" height="80"/></clipPath><linearGradient id="linear-gradient-2" x1="-170.71" y1="-184.82" x2="-169.71" y2="-184.82" gradientTransform="translate(19642.35 20991.56) scale(113.14)" xlink:href="#linear-gradient"/><clipPath id="clip-path-7"><rect class="cls-1" x="185" y="234" width="80" height="80"/></clipPath><linearGradient id="linear-gradient-3" x1="-172.92" y1="-184.62" x2="-171.92" y2="-184.62" gradientTransform="translate(19731.95 21161.23) scale(113.14)" xlink:href="#linear-gradient"/><clipPath id="clip-path-10"><rect class="cls-1" x="344.5" y="234" width="80" height="80"/></clipPath><linearGradient id="linear-gradient-4" x1="-171.92" y1="-183.62" x2="-170.92" y2="-183.62" gradientTransform="translate(19778.67 21048.44) scale(113.14)" xlink:href="#linear-gradient"/><clipPath id="clip-path-13"><rect id="SVGID" class="cls-1" x="310" y="187" width="80" height="80"/></clipPath><linearGradient id="linear-gradient-5" x1="-171.84" y1="-184.13" x2="-170.84" y2="-184.13" gradientTransform="translate(19735.33 21059.07) scale(113.14)" xlink:href="#linear-gradient"/></defs><rect class="cls-2" width="1329" height="447"/><line class="cls-3" x1="425" y1="81" x2="722.7" y2="81"/><path d="M719.11,81l-4.39-7.21.25-.16,11.75,4.67L739,81l-12.28,2.7L715,88.37l-.25-.12Z"/><line class="cls-3" x1="774" y1="121" x2="582" y2="269"/><g id="Lambda"><g class="cls-4"><g class="cls-4"><rect class="cls-5" x="722.43" y="24.43" width="113.14" height="113.14" transform="translate(170.89 574.56) rotate(-45)"/></g><g class="cls-4"><path class="cls-6" d="M767,107H754.59l13.73-28.7,6.23,12.81Zm2.21-31.45a1,1,0,0,0-.9-.56h0a1,1,0,0,0-.9.57l-15.31,32a1,1,0,0,0,.06,1,1,1,0,0,0,.84.47h14.64a1,1,0,0,0,.91-.57l8-16.9a1,1,0,0,0,0-.86ZM804,107H791.66L771.87,65.57A1,1,0,0,0,771,65h-8.07V55h15.82l19.7,41.43a1,1,0,0,0,.91.57H804Zm1-12h-5l-19.7-41.43a1,1,0,0,0-.91-.57H761.9a1,1,0,0,0-1,1l0,12a1,1,0,0,0,.3.71,1,1,0,0,0,.71.29h8.44l19.79,41.43a1,1,0,0,0,.91.57h14a1,1,0,0,0,1-1V96a1,1,0,0,0-1-1"/></g></g></g><g id="EC2_Autoscaling" data-name="EC2 Autoscaling"><g class="cls-7"><g class="cls-7"><rect class="cls-8" x="328.43" y="24.43" width="113.14" height="113.14" transform="translate(55.49 295.96) rotate(-45)"/></g><g class="cls-7"><path class="cls-6" d="M391.56,100l1.42,1.42-7.23,7.22a1,1,0,0,1-.7.29,1,1,0,0,1-.71-.29l-7.28-7.28,1.41-1.42,5.57,5.57V94.32h2v11.22Zm-5.81-46.73L393,60.51l-1.42,1.42L386,56.41V67.63h-2V56.42L378.47,62l-1.41-1.41,7.28-7.29a1,1,0,0,1,1.41,0M413.11,82H401.9l5.57,5.57L406.06,89l-7.29-7.28a1,1,0,0,1,0-1.42L406,73l1.41,1.42L401.89,80h11.22Zm-41.77-1.72a1,1,0,0,1,0,1.42L364.06,89l-1.42-1.41L368.21,82H357V80h11.22l-5.52-5.52L364.12,73ZM386.8,81a3.65,3.65,0,0,0,3.1,1.7,4.08,4.08,0,0,0,.93-.11v2.2h-4a1,1,0,0,0-.93.63,1,1,0,0,0,.24,1.1,1.7,1.7,0,0,1,.32,2,1.23,1.23,0,0,1-.62.63,1.75,1.75,0,0,1-1.75-.06,1.68,1.68,0,0,1-.77-1.41,1.64,1.64,0,0,1,.52-1.21,1,1,0,0,0,.24-1.1,1,1,0,0,0-.93-.63h-4V72.67h11.66v2.82a3.85,3.85,0,0,0-2.63.27,3.28,3.28,0,0,0-1.58,1.58A3.74,3.74,0,0,0,386.8,81m2.26-3.44a1.7,1.7,0,0,1,2.05.32,1,1,0,0,0,1.72-.69V71.67a1,1,0,0,0-1-1h-13a1.7,1.7,0,0,0-1.7,1.7V85.8a1,1,0,0,0,1,1h3.27a4.24,4.24,0,0,0-.11.94A3.66,3.66,0,0,0,385,91.41,4.06,4.06,0,0,0,386.7,91a3.26,3.26,0,0,0,1.58-1.59,3.84,3.84,0,0,0,.27-2.63h3.28a1,1,0,0,0,1-1V80.88a1,1,0,0,0-1.72-.69,1.72,1.72,0,0,1-2.62-.25,1.75,1.75,0,0,1-.06-1.75,1.23,1.23,0,0,1,.63-.62"/></g></g></g><g id="EC2"><g class="cls-9"><g class="cls-9"><rect class="cls-10" x="168.43" y="217.43" width="113.14" height="113.14" transform="translate(-127.85 239.35) rotate(-45)"/></g><g class="cls-9"><path class="cls-6" d="M212,287h25V262H212Zm27-25h4v2h-4v4h4v2h-4v3h4v2h-4v4h4v2h-4v4h4v2h-4v.14a1.87,1.87,0,0,1-1.86,1.86H237v4h-2v-4h-4v4h-2v-4h-3v4h-2v-4h-4v4h-2v-4h-4v4h-2v-4h-.14a1.87,1.87,0,0,1-1.86-1.86V287h-3v-2h3v-4h-3v-2h3v-4h-3v-2h3v-3h-3v-2h3v-4h-3v-2h3v-.14a1.87,1.87,0,0,1,1.86-1.86H212v-4h2v4h4v-4h2v4h4v-4h2v4h3v-4h2v4h4v-4h2v4h.14a1.87,1.87,0,0,1,1.86,1.86Zm-13,37.88a.13.13,0,0,1-.12.12H199.12a.13.13,0,0,1-.12-.12V273.12a.13.13,0,0,1,.12-.12H205v-2h-5.88a2.12,2.12,0,0,0-2.12,2.12v26.76a2.12,2.12,0,0,0,2.12,2.12h26.76a2.12,2.12,0,0,0,2.12-2.12V295h-2Zm27-51.76v26.76a2.12,2.12,0,0,1-2.12,2.12H245v-2h5.88a.13.13,0,0,0,.12-.12V248.12a.13.13,0,0,0-.12-.12H224.12a.13.13,0,0,0-.12.12V254h-2v-5.88a2.12,2.12,0,0,1,2.12-2.12h26.76a2.12,2.12,0,0,1,2.12,2.12"/></g></g></g><g id="EC2-2" data-name="EC2"><g class="cls-11"><g class="cls-11"><rect class="cls-12" x="327.93" y="217.43" width="113.14" height="113.14" transform="translate(-81.13 352.14) rotate(-45)"/></g><g class="cls-11"><path class="cls-6" d="M371.5,287h25V262h-25Zm27-25h4v2h-4v4h4v2h-4v3h4v2h-4v4h4v2h-4v4h4v2h-4v.14a1.87,1.87,0,0,1-1.86,1.86h-.14v4h-2v-4h-4v4h-2v-4h-3v4h-2v-4h-4v4h-2v-4h-4v4h-2v-4h-.14a1.87,1.87,0,0,1-1.86-1.86V287h-3v-2h3v-4h-3v-2h3v-4h-3v-2h3v-3h-3v-2h3v-4h-3v-2h3v-.14a1.87,1.87,0,0,1,1.86-1.86h.14v-4h2v4h4v-4h2v4h4v-4h2v4h3v-4h2v4h4v-4h2v4h.14a1.87,1.87,0,0,1,1.86,1.86Zm-13,37.88a.13.13,0,0,1-.12.12H358.62a.13.13,0,0,1-.12-.12V273.12a.13.13,0,0,1,.12-.12h5.88v-2h-5.88a2.12,2.12,0,0,0-2.12,2.12v26.76a2.12,2.12,0,0,0,2.12,2.12h26.76a2.12,2.12,0,0,0,2.12-2.12V295h-2Zm27-51.76v26.76a2.12,2.12,0,0,1-2.12,2.12H404.5v-2h5.88a.13.13,0,0,0,.12-.12V248.12a.13.13,0,0,0-.12-.12H383.62a.13.13,0,0,0-.12.12V254h-2v-5.88a2.12,2.12,0,0,1,2.12-2.12h26.76a2.12,2.12,0,0,1,2.12,2.12"/></g></g></g><g id="EC2-3" data-name="EC2"><g class="cls-13"><g class="cls-13"><rect class="cls-14" x="293.43" y="170.43" width="113.14" height="113.14" transform="translate(-58 313.97) rotate(-45)"/></g><g class="cls-13"><path class="cls-6" d="M337,240h25V215H337Zm27-25h4v2h-4v4h4v2h-4v3h4v2h-4v4h4v2h-4v4h4v2h-4v.14a1.87,1.87,0,0,1-1.86,1.86H362v4h-2v-4h-4v4h-2v-4h-3v4h-2v-4h-4v4h-2v-4h-4v4h-2v-4h-.14a1.87,1.87,0,0,1-1.86-1.86V240h-3v-2h3v-4h-3v-2h3v-4h-3v-2h3v-3h-3v-2h3v-4h-3v-2h3v-.14a1.87,1.87,0,0,1,1.86-1.86H337v-4h2v4h4v-4h2v4h4v-4h2v4h3v-4h2v4h4v-4h2v4h.14a1.87,1.87,0,0,1,1.86,1.86Zm-13,37.88a.13.13,0,0,1-.12.12H324.12a.13.13,0,0,1-.12-.12V226.12a.13.13,0,0,1,.12-.12H330v-2h-5.88a2.12,2.12,0,0,0-2.12,2.12v26.76a2.12,2.12,0,0,0,2.12,2.12h26.76a2.12,2.12,0,0,0,2.12-2.12V248h-2Zm27-51.76v26.76a2.12,2.12,0,0,1-2.12,2.12H370v-2h5.88a.13.13,0,0,0,.12-.12V201.12a.13.13,0,0,0-.12-.12H349.12a.13.13,0,0,0-.12.12V207h-2v-5.88a2.12,2.12,0,0,1,2.12-2.12h26.76a2.12,2.12,0,0,1,2.12,2.12"/></g></g></g><text class="cls-15" transform="translate(48.35 257.04)">EC2 <tspan class="cls-16" x="39.53" y="0">I</tspan><tspan x="45.01" y="0">nstan</tspan><tspan class="cls-17" x="96.03" y="0">c</tspan><tspan x="105.75" y="0">es</tspan></text><text class="cls-18" transform="translate(172.46 355.58)">Each <tspan class="cls-19" x="35.02" y="0">I</tspan><tspan x="39.01" y="0">nstan</tspan><tspan class="cls-20" x="76.11" y="0">c</tspan><tspan x="83.18" y="0">e gets the </tspan><tspan class="cls-21" x="152.16" y="0">f</tspan><tspan x="156.62" y="0">oll</tspan><tspan class="cls-22" x="172.96" y="0">o</tspan><tspan class="cls-23" x="181.63" y="0">wing installed </tspan><tspan class="cls-24" x="278.32" y="0">a</tspan><tspan x="285.96" y="0">t initial sta</tspan><tspan class="cls-25" x="354.28" y="0">r</tspan><tspan x="359.9" y="0">t (via user </tspan><tspan x="193.27" y="19.2">d</tspan><tspan class="cls-26" x="202.29" y="19.2">a</tspan><tspan x="209.94" y="19.2">ta):</tspan><tspan x="31.79" y="38.4">- the l</tspan><tspan class="cls-26" x="69.45" y="38.4">a</tspan><tspan class="cls-27" x="77.1" y="38.4">t</tspan><tspan class="cls-28" x="82.3" y="38.4">est </tspan><tspan class="cls-29" x="105.34" y="38.4">v</tspan><tspan x="112.88" y="38.4">ersion of </tspan><tspan class="cls-30" x="174.11" y="38.4">C</tspan><tspan class="cls-31" x="183.34" y="38.4">r</tspan><tspan x="188.64" y="38.4">ibl </tspan><tspan class="cls-32" x="208.65" y="38.4">L</tspan><tspan x="215.98" y="38.4">og</tspan><tspan class="cls-33" x="233.71" y="38.4">S</tspan><tspan x="241.55" y="38.4">t</tspan><tspan class="cls-34" x="246.84" y="38.4">r</tspan><tspan x="251.92" y="38.4">eam (cu</tspan><tspan class="cls-31" x="304.91" y="38.4">r</tspan><tspan class="cls-34" x="310.2" y="38.4">r</tspan><tspan class="cls-23" x="315.27" y="38.4">e</tspan><tspan class="cls-35" x="323.29" y="38.4">n</tspan><tspan x="332.11" y="38.4">t </tspan><tspan class="cls-29" x="340.79" y="38.4">r</tspan><tspan x="345.87" y="38.4">elease)</tspan><tspan x="53.54" y="57.6">- the chec</tspan><tspan class="cls-34" x="118.66" y="57.6">k</tspan><tspan x="126" y="57.6">-file</tspan><tspan class="cls-36" x="151.08" y="57.6">s</tspan><tspan x="157.24" y="57.6">.sh sc</tspan><tspan class="cls-31" x="192.66" y="57.6">r</tspan><tspan class="cls-23" x="197.96" y="57.6">ipt (i</tspan><tspan class="cls-35" x="227.78" y="57.6">n</tspan><tspan class="cls-27" x="236.59" y="57.6">t</tspan><tspan x="241.79" y="57.6">o /opt/c</tspan><tspan class="cls-31" x="295.3" y="57.6">r</tspan><tspan x="300.59" y="57.6">ibl/sc</tspan><tspan class="cls-31" x="336.21" y="57.6">r</tspan><tspan x="341.5" y="57.6">ipts)</tspan></text><text class="cls-18" transform="translate(56.88 160.39)"><tspan class="cls-37">A</tspan><tspan class="cls-38" x="9.6" y="0">u</tspan><tspan class="cls-39" x="18.42" y="0">t</tspan><tspan x="23.62" y="0">oscaler decides </tspan><tspan class="cls-27" x="128.75" y="0">t</tspan><tspan x="133.95" y="0">o scale d</tspan><tspan class="cls-40" x="191.55" y="0">o</tspan><tspan class="cls-41" x="200.22" y="0">wn, and </tspan><tspan class="cls-34" x="256.59" y="0">r</tspan><tspan x="261.66" y="0">em</tspan><tspan class="cls-22" x="283.02" y="0">o</tspan><tspan class="cls-34" x="291.69" y="0">v</tspan><tspan x="299.23" y="0">e one </tspan><tspan x="55.77" y="19.2">instan</tspan><tspan class="cls-27" x="96.62" y="19.2">c</tspan><tspan x="103.69" y="19.2">e (the 3</tspan><tspan class="cls-34" x="153.43" y="19.2">r</tspan><tspan x="158.5" y="19.2">d on</tspan><tspan class="cls-37" x="188.58" y="19.2">e</tspan><tspan class="cls-38" x="196.4" y="19.2">, in this case) </tspan></text><text class="cls-18" transform="translate(438.14 67.46)">Notific<tspan class="cls-35" x="43.89" y="0">a</tspan><tspan class="cls-38" x="51.54" y="0">tion is se</tspan><tspan class="cls-35" x="109.46" y="0">n</tspan><tspan x="118.27" y="0">t </tspan><tspan class="cls-27" x="126.96" y="0">t</tspan><tspan x="132.16" y="0">o the Li</tspan><tspan class="cls-42" x="181.21" y="0">f</tspan><tspan x="185.68" y="0">e</tspan><tspan class="cls-43" x="193.69" y="0">c</tspan><tspan class="cls-34" x="201.15" y="0">y</tspan><tspan x="208.52" y="0">cle Hook</tspan></text><text class="cls-18" transform="translate(861.19 123.81)">Lambda fun<tspan class="cls-44" x="80.21" y="0">c</tspan><tspan x="87.58" y="0">tion uses SSM </tspan><tspan class="cls-39" x="182.6" y="0">t</tspan><tspan class="cls-38" x="187.8" y="0">o a</tspan><tspan class="cls-39" x="207.69" y="0">cc</tspan><tspan x="221.84" y="0">ess the instan</tspan><tspan class="cls-27" x="312.35" y="0">c</tspan><tspan class="cls-37" x="319.42" y="0">e</tspan><tspan x="327.24" y="0">, running </tspan><tspan x="-46.29" y="19.2">/opt/c</tspan><tspan class="cls-45" x="-4.97" y="19.2">r</tspan><tspan x="0.33" y="19.2">ibl/sc</tspan><tspan class="cls-46" x="35.94" y="19.2">r</tspan><tspan x="41.24" y="19.2">ipts/chec</tspan><tspan class="cls-34" x="102.44" y="19.2">k</tspan><tspan x="109.78" y="19.2">-file</tspan><tspan class="cls-36" x="134.85" y="19.2">s</tspan><tspan x="141.01" y="19.2">.sh on the instan</tspan><tspan class="cls-27" x="250.42" y="19.2">c</tspan><tspan x="257.49" y="19.2">e ta</tspan><tspan class="cls-47" x="281.91" y="19.2">r</tspan><tspan x="287.01" y="19.2">ge</tspan><tspan class="cls-27" x="303.97" y="19.2">t</tspan><tspan x="309.17" y="19.2">ed </tspan><tspan class="cls-42" x="329.6" y="19.2">f</tspan><tspan x="334.07" y="19.2">or </tspan><tspan class="cls-27" x="351.47" y="19.2">t</tspan><tspan x="356.67" y="19.2">e</tspan><tspan class="cls-46" x="364.69" y="19.2">r</tspan><tspan x="369.99" y="19.2">min</tspan><tspan class="cls-24" x="395.95" y="19.2">a</tspan><tspan x="403.6" y="19.2">tion.</tspan><tspan class="cls-19" x="-52.34" y="57.6">I</tspan><tspan x="-48.36" y="57.6">f the sc</tspan><tspan class="cls-46" x="-1.21" y="57.6">r</tspan><tspan x="4.09" y="57.6">ipt </tspan><tspan class="cls-30" x="25.62" y="57.6">e</tspan><tspan x="33.59" y="57.6">xits </tspan><tspan class="cls-27" x="59.77" y="57.6">g</tspan><tspan class="cls-48" x="68.61" y="57.6">r</tspan><tspan x="73.77" y="57.6">a</tspan><tspan class="cls-27" x="81.48" y="57.6">c</tspan><tspan x="88.55" y="57.6">efull</tspan><tspan class="cls-49" x="117.6" y="57.6">y</tspan><tspan x="124.52" y="57.6">, the lambda si</tspan><tspan class="cls-27" x="220.95" y="57.6">g</tspan><tspan x="229.79" y="57.6">nals the ASG hook th</tspan><tspan class="cls-24" x="368.4" y="57.6">a</tspan><tspan class="cls-41" x="376.05" y="57.6">t i</tspan><tspan class="cls-50" x="388.48" y="57.6">t</tspan><tspan class="cls-51" x="394.11" y="57.6">’</tspan><tspan x="396.27" y="57.6">s ok </tspan><tspan class="cls-27" x="425.68" y="57.6">t</tspan><tspan x="430.88" y="57.6">o </tspan><tspan x="-47.33" y="76.8">p</tspan><tspan class="cls-34" x="-38.23" y="76.8">r</tspan><tspan x="-33.16" y="76.8">o</tspan><tspan class="cls-27" x="-24.38" y="76.8">c</tspan><tspan x="-17.3" y="76.8">eed with </tspan><tspan class="cls-27" x="44.23" y="76.8">t</tspan><tspan x="49.43" y="76.8">e</tspan><tspan class="cls-46" x="57.45" y="76.8">r</tspan><tspan x="62.74" y="76.8">min</tspan><tspan class="cls-24" x="88.71" y="76.8">a</tspan><tspan x="96.36" y="76.8">tion. </tspan><tspan class="cls-52" x="129.77" y="76.8">O</tspan><tspan x="141.06" y="76.8">the</tspan><tspan class="cls-53" x="163.25" y="76.8">r</tspan><tspan x="168.89" y="76.8">wis</tspan><tspan class="cls-37" x="190.74" y="76.8">e</tspan><tspan x="198.57" y="76.8">, it does</tspan><tspan class="cls-54" x="249.86" y="76.8">n</tspan><tspan class="cls-36" x="258.21" y="76.8">’</tspan><tspan x="261.35" y="76.8">t send a</tspan><tspan class="cls-42" x="313.39" y="76.8">n</tspan><tspan x="322.07" y="76.8">y message </tspan><tspan class="cls-27" x="395.09" y="76.8">t</tspan><tspan x="400.29" y="76.8">o the </tspan><tspan x="-51.75" y="96">ASG hoo</tspan><tspan class="cls-55" x="6.1" y="96">k</tspan><tspan x="13.83" y="96">, leading the </tspan><tspan class="cls-27" x="99.61" y="96">t</tspan><tspan x="104.81" y="96">e</tspan><tspan class="cls-46" x="112.82" y="96">r</tspan><tspan x="118.12" y="96">min</tspan><tspan class="cls-35" x="144.08" y="96">a</tspan><tspan x="151.73" y="96">tion </tspan><tspan class="cls-27" x="181.83" y="96">t</tspan><tspan x="187.03" y="96">o </tspan><tspan class="cls-35" x="199.2" y="96">w</tspan><tspan x="210.92" y="96">ait u</tspan><tspan class="cls-24" x="239.88" y="96">n</tspan><tspan x="248.69" y="96">til the hea</tspan><tspan class="cls-56" x="315.09" y="96">r</tspan><tspan x="320.71" y="96">tbe</tspan><tspan class="cls-35" x="343.12" y="96">a</tspan><tspan x="350.77" y="96">t timeout has </tspan><tspan class="cls-30" x="-6.09" y="115.2">e</tspan><tspan x="1.88" y="115.2">xpi</tspan><tspan class="cls-34" x="22.14" y="115.2">r</tspan><tspan x="27.21" y="115.2">ed (</tspan><tspan class="cls-27" x="52.18" y="115.2">g</tspan><tspan x="61.03" y="115.2">iving </tspan><tspan class="cls-34" x="97.43" y="115.2">y</tspan><tspan x="104.8" y="115.2">ou time </tspan><tspan class="cls-27" x="159.59" y="115.2">t</tspan><tspan x="164.79" y="115.2">o fix the destin</tspan><tspan class="cls-35" x="263.01" y="115.2">a</tspan><tspan class="cls-38" x="270.66" y="115.2">tion </tspan><tspan class="cls-27" x="300.75" y="115.2">t</tspan><tspan x="305.95" y="115.2">o let it d</tspan><tspan class="cls-57" x="360.06" y="115.2">r</tspan><tspan class="cls-41" x="365.22" y="115.2">ain).</tspan></text><text class="cls-18" transform="translate(617.59 296.5)"><tspan class="cls-58">T</tspan><tspan x="7.84" y="0">he check_file</tspan><tspan class="cls-36" x="95.02" y="0">s</tspan><tspan x="101.18" y="0">.sh sc</tspan><tspan class="cls-31" x="136.61" y="0">r</tspan><tspan x="141.9" y="0">ipt looks </tspan><tspan class="cls-35" x="202.01" y="0">a</tspan><tspan class="cls-38" x="209.66" y="0">t the specified list of </tspan><tspan class="cls-59" x="346.49" y="0">Q</tspan><tspan x="357.56" y="0">ueue di</tspan><tspan class="cls-60" x="407.38" y="0">r</tspan><tspan x="412.46" y="0">e</tspan><tspan class="cls-44" x="420.47" y="0">c</tspan><tspan class="cls-39" x="427.85" y="0">t</tspan><tspan x="433.05" y="0">o</tspan><tspan class="cls-45" x="441.83" y="0">r</tspan><tspan x="447.13" y="0">ies (defaults </tspan><tspan class="cls-27" x="10.88" y="19.2">t</tspan><tspan x="16.08" y="19.2">o /opt/c</tspan><tspan class="cls-31" x="69.58" y="19.2">r</tspan><tspan x="74.88" y="19.2">ibl/st</tspan><tspan class="cls-24" x="108.62" y="19.2">a</tspan><tspan class="cls-20" x="116.27" y="19.2">t</tspan><tspan x="121.47" y="19.2">e/queues), and if the</tspan><tspan class="cls-34" x="258.23" y="19.2">r</tspan><tspan x="263.31" y="19.2">e a</tspan><tspan class="cls-34" x="282.43" y="19.2">r</tspan><tspan x="287.5" y="19.2">e no files (si</tspan><tspan class="cls-27" x="364.47" y="19.2">g</tspan><tspan x="373.32" y="19.2">nifying no d</tspan><tspan class="cls-35" x="453.19" y="19.2">a</tspan><tspan x="460.84" y="19.2">ta being </tspan><tspan x="58.73" y="38.4">queued) , </tspan><tspan class="cls-30" x="125.06" y="38.4">e</tspan><tspan x="133.03" y="38.4">xits </tspan><tspan class="cls-20" x="159.21" y="38.4">g</tspan><tspan class="cls-61" x="168.05" y="38.4">r</tspan><tspan x="173.21" y="38.4">a</tspan><tspan class="cls-27" x="180.92" y="38.4">c</tspan><tspan x="187.99" y="38.4">efull</tspan><tspan class="cls-49" x="217.04" y="38.4">y</tspan><tspan x="223.96" y="38.4">. </tspan><tspan class="cls-19" x="230.66" y="38.4">I</tspan><tspan x="234.64" y="38.4">f it finds a</tspan><tspan class="cls-42" x="298.85" y="38.4">n</tspan><tspan x="307.52" y="38.4">y file</tspan><tspan class="cls-36" x="338.61" y="38.4">s</tspan><tspan x="344.77" y="38.4">, it th</tspan><tspan class="cls-34" x="378.08" y="38.4">r</tspan><tspan class="cls-40" x="383.15" y="38.4">o</tspan><tspan class="cls-39" x="391.82" y="38.4">w</tspan><tspan x="403.5" y="38.4">s an e</tspan><tspan class="cls-45" x="441.23" y="38.4">r</tspan><tspan class="cls-34" x="446.53" y="38.4">r</tspan><tspan x="451.6" y="38.4">o</tspan><tspan class="cls-62" x="460.38" y="38.4">r</tspan><tspan x="464.77" y="38.4">.</tspan></text><text class="cls-15" transform="translate(163.71 54.69)"><tspan class="cls-63">A</tspan><tspan x="13.2" y="0">u</tspan><tspan class="cls-64" x="25.32" y="0">t</tspan><tspan x="32.47" y="0">oscaling G</tspan><tspan class="cls-65" x="127.44" y="0">r</tspan><tspan x="134.42" y="0">oup </tspan><tspan class="cls-36" x="102.89" y="26.4">C</tspan><tspan x="115.41" y="26.4">o</tspan><tspan class="cls-66" x="127.49" y="26.4">n</tspan><tspan x="139.61" y="26.4">t</tspan><tspan class="cls-65" x="146.89" y="26.4">r</tspan><tspan x="153.87" y="26.4">ol</tspan></text><text class="cls-15" transform="translate(829.51 54.34)">Li<tspan class="cls-67" x="15.53" y="0">f</tspan><tspan x="21.67" y="0">e</tspan><tspan class="cls-68" x="32.69" y="0">C</tspan><tspan class="cls-65" x="45.01" y="0">y</tspan><tspan x="55.15" y="0">cle Hook </tspan><tspan x="0" y="26.4">Lambda </tspan><tspan class="cls-69" x="79.53" y="26.4">F</tspan><tspan x="89.47" y="26.4">un</tspan><tspan class="cls-70" x="113.81" y="26.4">c</tspan><tspan x="123.95" y="26.4">tion</tspan></text><circle cx="153.06" cy="345.46" r="14.5"/><circle cx="600.82" cy="291.33" r="14.5"/><circle cx="843.86" cy="113.37" r="14.5"/><circle cx="787.86" cy="178.37" r="14.5"/><circle cx="445.33" cy="36.65" r="14.5"/><text class="cls-71" transform="translate(146.9 353.98)">1</text><text class="cls-71" transform="translate(594.66 299.85)">5</text><text class="cls-71" transform="translate(439.17 45.17)">3</text><circle cx="37.5" cy="156" r="14.5"/><text class="cls-71" transform="translate(31.34 164.52)">2</text><text class="cls-71" transform="translate(781.71 186.89)">6</text><text class="cls-71" transform="translate(837.71 121.89)">4</text></svg>